<?xml version="1.0" encoding="utf-8"?>
<!-- Generator: Adobe Illustrator 26.0.2, SVG Export Plug-In . SVG Version: 6.00 Build 0)  -->
<svg version="1.1" id="Layer_1" xmlns="http://www.w3.org/2000/svg" xmlns:xlink="http://www.w3.org/1999/xlink" x="0px" y="0px"
	 viewBox="0 0 64 64" style="enable-background:new 0 0 64 64;" xml:space="preserve">
<style type="text/css">
	.st0{fill:#FFFFFF;}
	.st1{fill:#151515;}
</style>
<circle class="st0" cx="32" cy="32.1" r="32"/>
<g id="Group_31">
	<path id="Path_18" class="st1" d="M51.1,32.1c0.8-0.7,1.2-1.7,1.2-2.9c0-2.5-1.6-4.1-4.2-4.1h-7.2v2.4h7.2c1.2,0,1.9,0.7,1.9,1.7
		s-0.7,1.7-1.9,1.7h-7.2v2.4h7.2c1.2,0,1.9,0.7,1.9,1.7s-0.7,1.7-1.9,1.7h-6.3c-1.3,0-2.2-0.8-2.2-2.1v-5.2c0-2.7-1.7-4.4-4.3-4.4
		c-1.3,0-2.4,0.4-3.1,1.2c-0.7-0.8-1.8-1.2-3.1-1.2c-1.3,0-2.4,0.5-3.1,1.3c-0.8-0.8-1.9-1.2-3.3-1.2h-7.5c-2.8,0-4.6,1.7-4.6,4.5v5
		c0,2.7,1.8,4.5,4.6,4.5h4.1c2.7,0,4.4-1.6,4.4-4.1c0-2.5-1.7-4.1-4.4-4.1h-5.1v2.4h5.1c1.2,0,1.9,0.7,1.9,1.7s-0.7,1.7-1.9,1.7
		h-4.1c-1.3,0-2.2-0.8-2.2-2.1v-5c0-1.3,0.8-2.1,2.2-2.1h7.5c1.3,0,2.2,0.8,2.2,2.1v9.4h2.4v-9.6c0-1.2,0.7-2,1.9-2
		c1.2,0,1.9,0.8,1.9,2v9.6h2.4v-9.6c0-1.2,0.7-2,1.9-2s1.9,0.8,1.9,2v5.2c0,2.7,1.8,4.5,4.6,4.5h6.3c2.6,0,4.2-1.6,4.2-4.1
		C52.3,33.8,51.9,32.8,51.1,32.1"/>
</g>
</svg>
