<?xml version="1.0" encoding="utf-8"?>
<!-- Generator: Adobe Illustrator 26.0.2, SVG Export Plug-In . SVG Version: 6.00 Build 0)  -->
<svg version="1.1" id="Layer_1" xmlns="http://www.w3.org/2000/svg" xmlns:xlink="http://www.w3.org/1999/xlink" x="0px" y="0px"
	 viewBox="0 0 64 64" style="enable-background:new 0 0 64 64;" xml:space="preserve">
<style type="text/css">
	.st0{fill:#FFFFFF;}
</style>
<circle class="st0" cx="32" cy="32" r="32"/>
<path d="M10.1,29h1.1v-4.4c0-0.3,0-0.8,0-0.8h0c0,0,0.2,0.5,0.2,0.8l1.7,4.5H14l1.7-4.5c0.1-0.2,0.3-0.8,0.3-0.8h0c0,0,0,0.5,0,0.8
	V29h1.1v-7h-1.4l-1.8,4.7c-0.1,0.2-0.3,0.8-0.3,0.8h0c0,0-0.2-0.5-0.2-0.8L11.6,22h-1.4V29z M18.4,29h1.1v-5h-1.1V29z M18.4,23.1
	h1.1V22h-1.1V23.1z M22.7,24.9h0.8V24h-0.7c-0.5,0-0.8,0.3-1,0.7V24h-1.1v5h1.1v-2.8C21.8,25.6,22.1,24.9,22.7,24.9z M26.5,29.1h0.3
	c1.2,0,2.1-1.2,2.1-2.6c0-1.4-0.9-2.6-2.1-2.6h-0.3c-0.5,0-1,0.3-1.2,0.7v-2.8h-1.1V29h1.1v-0.6C25.6,28.8,26.1,29.1,26.5,29.1z
	 M25.2,26.5c0-1,0.5-1.7,1.2-1.7h0.3c0.6,0,1.2,0.7,1.2,1.7s-0.5,1.7-1.2,1.7h-0.3C25.7,28.2,25.2,27.5,25.2,26.5z M31.3,29.1
	c0.7,0,1.3-0.3,1.6-0.8c0,0.5,0.3,0.8,0.8,0.8h0.7v-0.9c-0.4,0-0.6,0-0.6-0.4v-1.9c0-1.1-0.7-1.9-1.8-1.9h-0.4c-1,0-1.9,0.7-1.9,1.7
	h1.1c0-0.5,0.4-0.8,0.9-0.8H32c0.4,0,0.8,0.4,0.8,1v0.1L31.4,26c-1,0.2-1.8,0.6-1.8,1.6C29.6,28.5,30.3,29.1,31.3,29.1z M30.7,27.6
	c0-0.5,0.4-0.7,1-0.8l1.1-0.2v0.3c0,0.8-0.6,1.4-1.3,1.4C31,28.2,30.7,28,30.7,27.6z M37.1,29.1h0.3c1.1,0,1.9-0.9,2-2h-1
	c-0.1,0.6-0.4,1.1-1,1.1h-0.3c-0.7,0-1.1-0.8-1.1-1.7s0.4-1.7,1.2-1.7h0.3c0.5,0,0.9,0.5,1,1.1h1c-0.1-1.2-0.9-2-2-2h-0.3
	c-1.4,0-2.2,1.2-2.2,2.6C34.9,27.9,35.7,29.1,37.1,29.1z M40.4,29h1v-2.7c0-0.8,0.5-1.5,1.1-1.5h0.4c0.5,0,0.9,0.5,0.9,1.1v3h1v-3.2
	c0-1.1-0.7-1.9-1.6-1.9h-0.4c-0.5,0-1.1,0.4-1.3,0.8v-2.9h-1V29z M47.9,29.1h0.4c1.3,0,2.2-1.1,2.2-2.6s-1-2.6-2.2-2.6h-0.4
	c-1.3,0-2.2,1.1-2.2,2.6C45.7,28,46.6,29.1,47.9,29.1z M46.8,26.5c0-1,0.5-1.7,1.1-1.7h0.3c0.6,0,1.1,0.7,1.1,1.7
	c0,1-0.5,1.7-1.1,1.7h-0.3C47.3,28.2,46.8,27.5,46.8,26.5z M52.5,29h1.1l1.8-5h-1.1l-1,3c-0.1,0.3-0.2,0.8-0.2,0.8h0
	c0,0-0.1-0.5-0.2-0.8l-1-3h-1.1L52.5,29z M23.9,36.9h-0.3c-0.5,0-1,0.3-1.3,0.7V37h-1.1V44h1.1v-2.7c0.3,0.4,0.8,0.7,1.2,0.7h0.3
	c1.3,0,2.1-1.1,2.1-2.6C26,38.1,25.1,36.9,23.9,36.9z M22.2,39.5c0-1,0.5-1.7,1.2-1.7h0.4c0.6,0,1.2,0.7,1.2,1.7s-0.6,1.7-1.2,1.7
	h-0.4C22.8,41.2,22.2,40.5,22.2,39.5z M28.3,42.1c0.7,0,1.3-0.3,1.6-0.8c0,0.5,0.3,0.8,0.8,0.8h0.7v-0.9c-0.4,0-0.6,0-0.6-0.4v-2
	c0-1.1-0.7-1.9-1.8-1.9h-0.4c-1,0-1.9,0.7-1.9,1.7h1.1c0-0.5,0.4-0.8,0.9-0.8h0.4c0.4,0,0.8,0.4,0.8,1v0.1L28.5,39
	c-1,0.2-1.8,0.6-1.8,1.6C26.7,41.5,27.3,42.1,28.3,42.1z M27.8,40.6c0-0.5,0.4-0.7,1-0.8l1.1-0.2v0.3c0,0.8-0.6,1.3-1.3,1.3
	C28.1,41.2,27.8,41,27.8,40.6z M32.2,42h1v-7.2h-1V42z M35.9,42.1c0.7,0,1.3-0.3,1.6-0.8c0,0.5,0.3,0.8,0.8,0.8H39v-0.9
	c-0.4,0-0.6,0-0.6-0.4v-2c0-1.1-0.7-1.9-1.8-1.9h-0.4c-1,0-1.9,0.7-1.9,1.7h1.1c0-0.5,0.4-0.8,0.9-0.8h0.4c0.4,0,0.8,0.4,0.8,1v0.1
	L36,39c-1,0.2-1.8,0.6-1.8,1.6C34.2,41.5,34.9,42.1,35.9,42.1z M35.3,40.6c0-0.5,0.4-0.7,1-0.8l1.1-0.2v0.3c0,0.8-0.6,1.3-1.3,1.3
	C35.6,41.2,35.3,41,35.3,40.6z M36,36.4h0.9l1-1.5h-1.1L36,36.4z M41.7,42.1H42c1.1,0,1.9-0.9,2-2h-1c-0.1,0.6-0.4,1.1-1,1.1h-0.3
	c-0.7,0-1.1-0.8-1.1-1.7c0-0.9,0.4-1.7,1.2-1.7h0.3c0.5,0,0.9,0.5,1,1.1h1c-0.1-1.2-0.9-2-2-2h-0.3c-1.4,0-2.2,1.2-2.2,2.6
	C39.5,40.9,40.3,42.1,41.7,42.1z"/>
</svg>
