<?xml version="1.0" encoding="utf-8"?>
<!-- Generator: Adobe Illustrator 26.0.2, SVG Export Plug-In . SVG Version: 6.00 Build 0)  -->
<svg version="1.1" id="Layer_1" xmlns="http://www.w3.org/2000/svg" xmlns:xlink="http://www.w3.org/1999/xlink" x="0px" y="0px"
	 viewBox="0 0 64 64" style="enable-background:new 0 0 64 64;" xml:space="preserve">
<style type="text/css">
	.st0{fill:#FFFFFF;}
</style>
<circle class="st0" cx="32" cy="32" r="32"/>
<path d="M14.8,29h1.1v-2.7h1.7c1.4,0,2.2-0.9,2.2-2.1S19,22,17.6,22h-2.9V29z M15.9,25.3V23h1.6c0.8,0,1.1,0.5,1.1,1.1
	c0,0.6-0.3,1.2-1.1,1.2H15.9z M21.9,29.1c0.7,0,1.3-0.3,1.6-0.8c0,0.5,0.3,0.8,0.8,0.8H25v-0.9c-0.4,0-0.6,0-0.6-0.4v-1.9
	c0-1.1-0.7-1.9-1.8-1.9h-0.4c-1,0-1.9,0.7-1.9,1.7h1.1c0.1-0.5,0.4-0.8,0.9-0.8h0.4c0.4,0,0.8,0.4,0.8,1v0.1L22,26
	c-1,0.2-1.8,0.6-1.8,1.6C20.2,28.5,20.9,29.1,21.9,29.1z M21.3,27.6c0-0.5,0.4-0.7,1-0.8l1.1-0.2v0.3c0,0.8-0.6,1.4-1.3,1.4
	C21.6,28.2,21.3,28,21.3,27.6z M22,23.4h0.9l1-1.5h-1.1L22,23.4z M25.8,29h1.1v-7.2h-1.1V29z M28.5,29h1v-4.1h1.8V29h1.1v-4.1h1.5
	V24h-1.5v-0.6c0-0.5,0.2-0.6,0.6-0.6h0.8v-0.9h-1.2c-0.9,0-1.3,0.5-1.3,1.4V24h-1.8v-0.6c0-0.5,0.2-0.6,0.6-0.6H31v-0.9h-1.2
	c-0.9,0-1.3,0.5-1.3,1.4V24h-1v0.9h1V29z M35.1,30.2h-0.5V31h0.6c0.7,0,1.2-0.4,1.5-1.2l2.1-5.9h-1.1l-1,3c-0.1,0.3-0.2,0.8-0.2,0.8
	h0c0,0-0.1-0.5-0.2-0.8l-1-3h-1.1l1.6,4.4c0.1,0.3,0.2,0.5,0.2,0.7C35.9,29.4,35.7,30.2,35.1,30.2z M39.5,29h1.1v-2.7
	c0-0.8,0.4-1.5,1.1-1.5H42c0.5,0,0.9,0.5,0.9,1.1v3h1v-3.2c0-1.1-0.7-1.9-1.6-1.9h-0.4c-0.5,0-1.1,0.4-1.3,0.8v-2.9h-1.1V29z
	 M47,29.1h0.4c1.3,0,2.2-1.1,2.2-2.6s-1-2.6-2.2-2.6H47c-1.3,0-2.2,1.1-2.2,2.6C44.8,28,45.8,29.1,47,29.1z M45.9,26.5
	c0-1,0.5-1.7,1.1-1.7h0.3c0.6,0,1.1,0.7,1.1,1.7c0,1-0.5,1.7-1.1,1.7h-0.3C46.4,28.2,45.9,27.5,45.9,26.5z M23.4,36.9h-0.3
	c-0.5,0-1,0.3-1.3,0.7V37h-1.1V44h1.1v-2.7c0.3,0.4,0.8,0.7,1.2,0.7h0.3c1.3,0,2.1-1.1,2.1-2.6C25.5,38.1,24.6,36.9,23.4,36.9z
	 M21.7,39.5c0-1,0.5-1.7,1.2-1.7h0.4c0.6,0,1.2,0.7,1.2,1.7s-0.6,1.7-1.2,1.7h-0.4C22.3,41.2,21.7,40.5,21.7,39.5z M27.8,42.1
	c0.7,0,1.3-0.3,1.6-0.8c0,0.5,0.3,0.8,0.8,0.8H31v-0.9c-0.4,0-0.6,0-0.6-0.4v-2c0-1.1-0.7-1.9-1.8-1.9h-0.4c-1,0-1.9,0.7-1.9,1.7
	h1.1c0-0.5,0.4-0.8,0.9-0.8h0.4c0.4,0,0.8,0.4,0.8,1v0.1L28,39c-1,0.2-1.8,0.6-1.8,1.6C26.2,41.5,26.8,42.1,27.8,42.1z M27.3,40.6
	c0-0.5,0.4-0.7,1-0.8l1.1-0.2v0.3c0,0.8-0.6,1.3-1.3,1.3C27.6,41.2,27.3,41,27.3,40.6z M31.7,42h1v-7.2h-1V42z M35.4,42.1
	c0.7,0,1.3-0.3,1.6-0.8c0,0.5,0.3,0.8,0.8,0.8h0.7v-0.9c-0.4,0-0.6,0-0.6-0.4v-2c0-1.1-0.7-1.9-1.8-1.9h-0.4c-1,0-1.9,0.7-1.9,1.7
	h1.1c0-0.5,0.4-0.8,0.9-0.8h0.4c0.4,0,0.8,0.4,0.8,1v0.1L35.5,39c-1,0.2-1.8,0.6-1.8,1.6C33.7,41.5,34.4,42.1,35.4,42.1z M34.8,40.6
	c0-0.5,0.4-0.7,1-0.8l1.1-0.2v0.3c0,0.8-0.6,1.3-1.3,1.3C35.1,41.2,34.8,41,34.8,40.6z M35.5,36.4h0.9l1-1.5h-1.1L35.5,36.4z
	 M41.2,42.1h0.3c1.1,0,1.9-0.9,2-2h-1c-0.1,0.6-0.4,1.1-1,1.1h-0.3c-0.7,0-1.1-0.8-1.1-1.7c0-0.9,0.4-1.7,1.2-1.7h0.3
	c0.5,0,0.9,0.5,1,1.1h1c-0.1-1.2-0.9-2-2-2h-0.3c-1.4,0-2.2,1.2-2.2,2.6C39,40.9,39.8,42.1,41.2,42.1z"/>
</svg>
