<svg version="1.1" id="Layer_1" xmlns="http://www.w3.org/2000/svg" xmlns:xlink="http://www.w3.org/1999/xlink" x="0px" y="0px"
	 viewBox="0 0 64 64" enable-background="new 0 0 64 64" xml:space="preserve" fill="currentColor">
<g id="Minus-file">
	<path d="M56.6478004,15.7945004L41.1185989,0.293C40.9310989,0.1055,40.6618996,0,40.396801,0L10.0934086,0.002
		c-1.6489077,0-3.0934081,1.3418-3.0934081,2.9912v57.8754997c0,0.8359032,0.421,1.6221008,1.0127997,2.2148018
		C8.6045008,63.6744003,9.486001,64,10.3220005,64H53.905899c0.795002,0,1.6012001-0.3095016,2.1637001-0.8720016
		C56.6311989,62.5654984,57,61.8184013,57,61.0243988V16.5014992C57,16.2364006,56.8353004,15.9820004,56.6478004,15.7945004z
		 M40.0834084,2.1155L53.9660988,16H40.0471001C40.1329994,7.6522999,40.1371002,3.8803,40.0834084,2.1155z M55,61.0243988
		c0,0.2569008-0.1637993,0.5083008-0.344902,0.6900024C54.4710007,61.8984985,54.1666985,62,53.905899,62H10.3220005
		c-0.3022995,0-0.6817999-0.1175995-0.8951998-0.3305016c-0.2139006-0.2143974-0.4267998-0.4986-0.4267998-0.8008003V2.9932001
		c0-0.5464001,0.5395994-0.9912,1.0859995-0.9912L38.0429993,2.0002c0.0488014,2.5220001,0.0214996,10.0921001-0.0305901,14.9890995
		c-0.0029106,0.2670994,0.112999,0.5244007,0.3009987,0.7138996C38.5014076,17.8931007,38.7691994,18,39.0363007,18H55V61.0243988z"
		/>
</g>
</svg>
