<svg id="Group_15" data-name="Group 15" xmlns="http://www.w3.org/2000/svg" viewBox="0 0 23.031 22.865">
  <path id="Path_12" data-name="Path 12" d="M.2,0,0,9.871" transform="translate(15.08 15.056) rotate(-45)" fill="none"
    stroke="currentColor" stroke-width="2.3" />
  <g id="Path_13" data-name="Path 13" transform="translate(0 10.654) rotate(-45)" fill="none">    <path
      d="M 7.514263153076172 2.299995422363281 C 6.118893623352051 2.299995422363281 4.808283805847168 2.842835426330566 3.823843002319336 3.828505516052246 C 2.839423179626465 4.814155578613281 2.298253059387207 6.12552547454834 2.300003051757812 7.521035194396973 C 2.303633689880371 10.40990543365479 4.656863212585449 12.76313495635986 7.542843341827393 12.76676559448242 L 7.55250358581543 12.76677513122559 C 8.947874069213867 12.76677513122559 10.25848388671875 12.2239351272583 11.24292373657227 11.23826503753662 C 12.22734355926514 10.25261497497559 12.76851367950439 8.941245079040527 12.76676368713379 7.545735359191895 C 12.76313304901123 4.656865119934082 10.40990352630615 2.303635597229004 7.523923397064209 2.300004959106445 L 7.514263153076172 2.299995422363281 M 7.514266014099121 -9.5367431640625e-07 C 7.517566204071045 -9.5367431640625e-07 7.520622253417969 9.5367431640625e-07 7.523923397064209 5.7220458984375e-06 C 11.68449306488037 0.005235671997070312 15.06153297424316 3.382275581359863 15.06676292419434 7.542845249176025 C 15.07198333740234 11.70341491699219 11.70430088043213 15.07198619842529 7.542843341827393 15.06676483154297 C 3.38227367401123 15.0615348815918 0.0052337646484375 11.684494972229 3.814697265625e-06 7.523925304412842 C -0.005212783813476562 3.366656303405762 3.358254432678223 -9.5367431640625e-07 7.514266014099121 -9.5367431640625e-07 Z"
      stroke="none" fill="currentColor" />
  </g>
</svg>
