<?xml version="1.0" standalone="no"?>
<!DOCTYPE svg PUBLIC "-//W3C//DTD SVG 20010904//EN"
 "http://www.w3.org/TR/2001/REC-SVG-20010904/DTD/svg10.dtd">
<svg version="1.0" xmlns="http://www.w3.org/2000/svg"
 width="260.000000pt" height="260.000000pt" viewBox="0 0 260.000000 260.000000"
 preserveAspectRatio="xMidYMid meet">
<metadata>
Created by potrace 1.14, written by Peter Selinger 2001-2017
</metadata>
<g transform="translate(0.000000,260.000000) scale(0.100000,-0.100000)"
fill="#000000" stroke="none">
<path d="M936 2288 c-223 -19 -408 -136 -494 -312 -67 -137 -67 -140 -67 -676
0 -431 2 -492 18 -548 30 -110 76 -191 152 -267 81 -81 159 -124 286 -156 79
-20 109 -22 474 -22 443 -1 502 6 634 71 115 56 213 166 256 287 30 84 42 281
21 364 -22 94 -39 129 -94 209 -71 103 -183 173 -331 209 -55 13 -137 16 -479
17 -227 1 -417 -1 -421 -4 -5 -3 -8 -79 -7 -170 l1 -165 405 -5 405 -5 55 -27
c98 -49 145 -154 118 -270 -18 -83 -95 -153 -188 -173 -60 -13 -699 -9 -750 5
-106 28 -170 89 -200 190 -16 53 -22 791 -7 875 20 113 86 185 203 220 34 10
165 13 582 14 295 0 548 1 562 1 l26 0 -2 163 c-1 89 -2 167 -3 172 -1 12
-1016 14 -1155 3z"/>
</g>
</svg>
